<svg width="561" height="563" viewBox="0 0 561 563" fill="none" xmlns="http://www.w3.org/2000/svg">
<path d="M547 384.093C547 435.991 539.277 470.937 526.615 494.583C514.258 517.66 496.679 530.957 474.244 538.76C451.191 546.778 422.938 549.008 389.687 549C373.761 548.996 357.038 548.487 339.447 547.952L337.456 547.891C319.211 547.337 300.105 546.776 280.5 546.776C260.895 546.776 241.789 547.337 223.544 547.891L221.553 547.952C203.962 548.487 187.239 548.996 171.313 549C138.062 549.008 109.809 546.778 86.7556 538.76C64.3209 530.957 46.7419 517.66 34.385 494.583C21.7233 470.937 14 435.991 14 384.093C14 280.679 44.6311 187.621 93.4626 120.755C142.302 53.8783 208.599 14 280.5 14C352.401 14 418.698 53.8783 467.537 120.755C516.369 187.621 547 280.679 547 384.093Z" stroke="white" stroke-width="28"/>
</svg>
